# xmcd CD database file
#
# Track frame offsets:
#	150
#	23189
#	46174
#	68594
#	89446
#	107814
#	147474
#	168996
#	186404
#	215468
#	239745
#	259938
#
# Disc length: 3817 seconds
#
# Revision: 0
# Processed by: cddbd v1.5PL3 Copyright (c) Steve Scherf et al.
# Submitted via: CDex 1.50beta8
#
DISCID=b10ee70c
DTITLE=Various(Lee Ritenour) - A Twist of Jobim
DYEAR=1997
DGENRE=Jazz
TTITLE0=Water To Drink (Agua De Beber)
TTITLE1=Captain Bacardi
TTITLE2=Dindi
TTITLE3=Waters Of March
TTITLE4=Bonita
TTITLE5=Stone Flower
TTITLE6=Favela
TTITLE7=Children's Games
TTITLE8=Lamento
TTITLE9=Mojave
TTITLE10=Girl From Ipanema
TTITLE11=Antigua
EXTD=YEAR: 1997
EXTT0=
EXTT1=
EXTT2=
EXTT3=
EXTT4=
EXTT5=
EXTT6=
EXTT7=
EXTT8=
EXTT9=
EXTT10=
EXTT11=
PLAYORDER=
